<svg width="64" height="64" viewBox="0 0 64 64" fill="none" xmlns="http://www.w3.org/2000/svg" role="img" aria-labelledby="title">
  <title id="title">Synthora.AI logo</title>
  <rect width="64" height="64" rx="20" fill="url(#paint0_linear)"/>
  <path d="M20.5 42.2C23.7 45.6 28 47.3 33.4 47.3C39.9 47.3 44.8 44 44.8 38.8C44.8 33.5 40.8 31.9 34.1 30.7C29.8 29.9 27.9 29.2 27.9 26.9C27.9 24.9 29.7 23.6 32.6 23.6C35.8 23.6 38.4 24.8 40.8 27.1L44.2 22.7C41.3 20 37.5 18.6 32.8 18.6C26.5 18.6 21.9 22 21.9 27.1C21.9 32.8 26.3 34.2 32.8 35.4C36.9 36.2 38.8 37 38.8 39.2C38.8 41.4 36.7 42.3 33.5 42.3C29.7 42.3 26.6 40.9 24.1 38L20.5 42.2Z" fill="white"/>
  <path d="M16 14.5C22 9.8 31.1 8.7 38.4 12.1" stroke="white" stroke-opacity=".65" stroke-width="2.5" stroke-linecap="round"/>
  <path d="M48.4 49.5C42.2 54.2 33.1 55 25.9 51.2" stroke="white" stroke-opacity=".55" stroke-width="2.5" stroke-linecap="round"/>
  <defs>
    <linearGradient id="paint0_linear" x1="8" y1="5" x2="57" y2="58" gradientUnits="userSpaceOnUse">
      <stop stop-color="#FFFFFF"/>
      <stop offset=".2" stop-color="#BFAAFF"/>
      <stop offset=".57" stop-color="#5A22E6"/>
      <stop offset="1" stop-color="#FF5DA2"/>
    </linearGradient>
  </defs>
</svg>
